<svg aria-hidden="true" style="position: absolute; width: 0; height: 0; overflow: hidden;" version="1.1" xmlns="http://www.w3.org/2000/svg" xmlns:xlink="http://www.w3.org/1999/xlink">
<path fill="#ea596e" style="fill: var(--color1, #ea596e)" d="M26.574 23.704c0.003 0.252-0.062 0.58-0.13 0.852-0.472 1.907-2.568 4.046-5.518 3.852-2.674-0.176-4.852-1.46-4.852-3.26s2.172-3.26 4.852-3.26 5.631 0.016 5.648 1.816z"></path>
<path fill="#dd2e44" style="fill: var(--color2, #dd2e44)" d="M20.926 22.19c-1.439 0-4.724 0.398-5.477 0.398-1.332 0-2.412 0.836-2.412 1.867 0 0.496 0.254 0.944 0.661 1.278 0 0 0.894 0.897 2.505 0.467 0.705-0.188 1.852-1.588 3.87-1.81 1.005-0.111 2.889 0.667 6.199 0.685 0.142-0.306 0.172-0.518 0.172-0.518 0-1.802-2.839-2.367-5.518-2.367z"></path>
<path fill="#f4abba" style="fill: var(--color3, #f4abba)" d="M26.444 24.556s1.941-0.394 3.148-1.981c1.407-1.852 1.222-3.833 1.222-3.833 1.426-2.667-0.444-5.167-0.444-5.167-0.186-2.815-1.926-3.981-1.926-3.981-1.13-2.685-3.629-3.407-3.629-3.407-1.963-2.296-5.444-2.222-5.444-2.222s-3.262-1.196-7.74 0.148c-0.74 0.222-3.222 0.74-5.037 1.852-5.721 3.502-6.154 8.964-6.074 9.852 0.444 4.963 3.925 5.852 6.148 6.37 0.518 1.407 2.426 4 5.852 3.037 4.222-0.74 6-2 7.037-2s3.926 1.111 6.889 1.333z"></path>
<path fill="#ea596e" style="fill: var(--color1, #ea596e)" d="M15.766 16.576c2.069-1.116 3.191-1.012 4.181-0.922 0.315 0.028 0.612 0.051 0.914 0.049 1.764-0.040 3.192-0.783 3.824-1.502 0.062-0.076 0.099-0.174 0.099-0.28 0-0.246-0.199-0.445-0.445-0.445-0.127 0-0.241 0.053-0.322 0.138l-0 0c-0.487 0.555-1.688 1.167-3.176 1.201-0.267 0.008-0.534-0.019-0.812-0.044-1.062-0.099-2.381-0.22-4.685 1.024-0.591 0.319-1.402 0.437-2.28 0.526-1.953-2.819-0.778-5.274-0.442-5.859 0.033 0.002 0.065 0.012 0.099 0.012 0.356 0 0.713-0.087 1.036-0.27 0.129-0.079 0.213-0.22 0.213-0.38 0-0.245-0.199-0.444-0.444-0.444-0.075 0-0.146 0.019-0.209 0.052l0.002-0.001c-0.176 0.099-0.387 0.157-0.611 0.157-0.441 0-0.83-0.226-1.057-0.568l-0.003-0.005c-0.082-0.114-0.213-0.187-0.363-0.187-0.245 0-0.444 0.199-0.444 0.444 0 0.082 0.022 0.158 0.061 0.224l-0.001-0.002c0.211 0.33 0.508 0.578 0.843 0.744-0.463 0.94-1.342 3.413 0.331 6.179-1.177 0.116-2.356 0.282-3.278 0.876-0.656 0.434-1.209 0.963-1.657 1.574l-0.013 0.018c-0.559-0.096-2.606-0.6-2.964-2.872 0.222-0.172 0.402-0.4 0.513-0.681 0.020-0.048 0.031-0.105 0.031-0.164 0-0.245-0.199-0.445-0.445-0.445-0.187 0-0.346 0.115-0.412 0.278l-0.001 0.003c-0.070 0.19-0.215 0.337-0.399 0.408l-0.005 0.002c-0.065 0.022-0.14 0.035-0.218 0.035-0.131 0-0.253-0.036-0.357-0.099l0.003 0.002c-0.062-0.035-0.137-0.056-0.216-0.056-0.245 0-0.444 0.199-0.444 0.444 0 0.166 0.091 0.311 0.226 0.387l0.002 0.001c0.252 0.14 0.523 0.212 0.791 0.212 0.033 0 0.064-0.015 0.097-0.017 0.423 2.145 2.118 3.087 3.317 3.372-0.149 0.309-0.253 0.667-0.293 1.045l-0.001 0.014c-0.001 0.012-0.002 0.025-0.002 0.039 0 0.232 0.177 0.422 0.404 0.443l0.002 0 0.040 0.002c0.232-0 0.422-0.177 0.443-0.404l0-0.002c0.096-1.078 1.124-2.204 2.038-2.796 0.857-0.552 2.111-0.668 3.325-0.781 1.178-0.108 2.291-0.211 3.163-0.682zM27.203 15.239c-0.034 0.062-0.055 0.135-0.055 0.213 0 0.246 0.199 0.445 0.445 0.445 0.167 0 0.313-0.092 0.389-0.229l0.001-0.002c0.017-0.030 1.637-3.066-1.396-5.106-0.070-0.047-0.155-0.076-0.248-0.076-0.245 0-0.445 0.199-0.445 0.444 0 0.153 0.077 0.288 0.195 0.368l0.002 0.001c2.35 1.58 1.164 3.845 1.112 3.941zM8.779 8.062c0 0 0.001 0 0.001 0 0.148 0 0.278-0.072 0.359-0.184l0.001-0.001c1.289-1.793 3.074-1.18 3.149-1.151 0.042 0.014 0.089 0.022 0.139 0.022 0.245 0 0.444-0.199 0.444-0.444 0-0.185-0.113-0.344-0.274-0.411l-0.003-0.001c-0.853-0.316-2.824-0.416-4.178 1.467-0.052 0.072-0.083 0.162-0.083 0.259 0 0.245 0.199 0.444 0.444 0.444h0zM20.398 6.384c1.978-0.161 2.877 1.273 2.918 1.34 0.079 0.132 0.221 0.22 0.384 0.22 0.246 0 0.445-0.199 0.445-0.445 0-0.083-0.023-0.161-0.062-0.227l0.001 0.002c-0.048-0.081-1.191-1.972-3.755-1.776-0.23 0.019-0.41 0.21-0.41 0.443 0 0.245 0.199 0.444 0.444 0.444 0.012 0 0.024-0 0.036-0.001l-0.002 0zM28.532 19.372c-0.219-0.012-0.46 0.161-0.479 0.406-0.002 0.016-0.143 1.528-1.698 2.039-0.182 0.058-0.311 0.226-0.311 0.423 0 0.245 0.199 0.444 0.444 0.444 0.002 0 0.005-0 0.007-0h-0c0 0 0 0 0 0 0.050 0 0.097-0.008 0.142-0.023l-0.003 0.001c2.108-0.692 2.299-2.724 2.306-2.81 0.001-0.011 0.001-0.023 0.001-0.035 0-0.233-0.179-0.425-0.407-0.445l-0.002-0z"></path>
<path fill="#ea596e" style="fill: var(--color1, #ea596e)" d="M6.531 15.052c-0.012 0.039-0.020 0.084-0.020 0.13 0 0.245 0.199 0.444 0.444 0.444 0.21 0 0.385-0.145 0.432-0.341l0.001-0.003c0.153-0.538 0.641-0.926 1.219-0.926 0.088 0 0.175 0.009 0.258 0.026l-0.008-0.001c0.027 0.006 0.059 0.009 0.091 0.009 0.246 0 0.445-0.199 0.445-0.445 0-0.213-0.15-0.391-0.351-0.435l-0.003-0.001c-0.125-0.027-0.269-0.042-0.416-0.042-0.248 0-0.487 0.043-0.708 0.123l0.015-0.005c-1.036-1.772-0.835-3.52-0.832-3.539 0.002-0.017 0.004-0.037 0.004-0.058 0-0.225-0.166-0.411-0.383-0.442l-0.002-0c-0.017-0.002-0.037-0.004-0.057-0.004-0.224 0-0.41 0.165-0.442 0.381l-0 0.002c-0.012 0.086-0.249 2.059 0.945 4.101-0.298 0.267-0.518 0.613-0.628 1.006l-0.004 0.015zM16.468 12.857c0.168-0.153 0.393-0.247 0.639-0.247 0.254 0 0.484 0.099 0.654 0.261l-0-0c0.080 0.077 0.189 0.125 0.309 0.125 0.125 0 0.238-0.051 0.319-0.134l0-0c0.078-0.080 0.126-0.189 0.126-0.31 0-0.125-0.052-0.238-0.135-0.319l-0-0c-0.195-0.185-0.432-0.328-0.696-0.41l-0.013-0.003c0.263-0.903 0.159-1.304-0.085-2.055-0.012-0.017-0.059-0.165-0.105-0.313l-0.035-0.13-0.027-0.089c-0.324-1.074-0.538-1.782 0.077-2.782 0.041-0.066 0.066-0.147 0.066-0.233 0-0.246-0.199-0.445-0.445-0.445-0.159 0-0.299 0.084-0.378 0.21l-0.001 0.002c-0.825 1.34-0.522 2.344-0.171 3.506l0.027 0.089c0.052 0.172 0.1 0.324 0.145 0.46 0.22 0.676 0.286 0.903 0.018 1.721-0.35 0.065-0.656 0.224-0.899 0.449l0.001-0.001c-0.083 0.081-0.134 0.193-0.134 0.318 0 0.245 0.199 0.444 0.444 0.444 0.114 0 0.218-0.043 0.296-0.113l-0 0zM22.125 10.204c0.002 0 0.003 0 0.005 0 0.275 0 0.536-0.063 0.769-0.174l-0.011 0.005c0.152-0.073 0.255-0.225 0.255-0.402 0-0.246-0.199-0.445-0.445-0.445-0.069 0-0.134 0.016-0.192 0.043l0.003-0.001c-0.116 0.054-0.252 0.086-0.396 0.086-0.357 0-0.669-0.197-0.832-0.488l-0.002-0.005c-0.074-0.148-0.225-0.247-0.398-0.247-0.245 0-0.444 0.199-0.444 0.444 0 0.082 0.022 0.159 0.061 0.225l-0.001-0.002c0.16 0.299 0.398 0.534 0.676 0.698-0.477 1.16-0.206 2.392 0.015 3.045 0.056 0.186 0.226 0.319 0.426 0.319 0.245 0 0.444-0.199 0.444-0.444 0-0.057-0.011-0.111-0.030-0.161l0.001 0.003c-0.149-0.443-0.439-1.561-0.002-2.512 0.034 0.002 0.065 0.013 0.098 0.013zM26.389 18.585c-0.014-0.233-0.206-0.416-0.441-0.416-0.011 0-0.022 0-0.032 0.001l0.001-0c-0.033 0.002-0.072 0.004-0.112 0.004-0.859 0-1.562-0.668-1.619-1.513l-0-0.005c-0.020-0.233-0.215-0.414-0.451-0.414-0.008 0-0.016 0-0.024 0.001l0.001-0c-0.232 0.017-0.414 0.21-0.414 0.445 0 0.010 0 0.020 0.001 0.030l-0-0.001c0.036 0.524 0.236 0.997 0.54 1.382-0.715 0.841-1.651 1.080-2.172 1.141-0.461 0.055-0.865 0.008-1.332-0.047-0.428-0.049-0.911-0.105-1.509-0.087l-0.004 0.001c-0.018-0.254-0.078-0.625-0.271-0.933-0.082-0.112-0.213-0.184-0.36-0.184-0.246 0-0.445 0.199-0.445 0.445 0 0.077 0.020 0.149 0.054 0.213l-0.001-0.002c0.119 0.191 0.141 0.496 0.141 0.644-0.448 0.161-0.836 0.397-1.186 0.626-0.626 0.407-1.119 0.729-1.861 0.562-0.672-0.154-1.345-0.185-1.916-0.105-0.089-0.223-0.229-0.49-0.446-0.695-0.079-0.075-0.187-0.121-0.305-0.121-0.246 0-0.445 0.199-0.445 0.445 0 0.127 0.053 0.242 0.139 0.323l0 0c0.076 0.072 0.137 0.177 0.186 0.282-0.98 0.404-1.472 1.078-1.495 1.111-0.051 0.071-0.082 0.161-0.082 0.257 0 0.245 0.199 0.444 0.444 0.444 0 0 0 0 0 0v0c0 0 0.001 0 0.001 0 0.147 0 0.278-0.071 0.359-0.181l0.001-0.001c0.004-0.007 0.492-0.66 1.455-0.924 0.498-0.137 1.212-0.125 1.908 0.033 0.195 0.044 0.375 0.060 0.55 0.062 0.083 0.194 0.115 0.424 0.119 0.509 0.014 0.234 0.207 0.419 0.444 0.42h0l0.024-0.001c0.235-0.013 0.421-0.207 0.421-0.444 0-0.007-0-0.015-0.001-0.022l0 0.001c-0.016-0.224-0.057-0.431-0.121-0.629l0.005 0.019c0.41-0.148 0.766-0.38 1.101-0.598 0.508-0.332 0.989-0.645 1.618-0.666 0.526-0.019 0.96 0.032 1.379 0.081 0.421 0.049 0.836 0.081 1.292 0.054 0.081 0.225 0.075 0.525 0.062 0.626-0.002 0.016-0.003 0.035-0.003 0.053 0 0.246 0.199 0.446 0.445 0.447h0c0.225-0 0.41-0.168 0.44-0.384l0-0.002c0.010-0.085 0.016-0.184 0.016-0.284 0-0.208-0.025-0.411-0.072-0.605l0.004 0.017c0.838-0.227 1.548-0.686 2.080-1.302l0.005-0.005c0.373 0.234 0.826 0.372 1.311 0.372 0.057 0 0.113-0.002 0.168-0.006l-0.008 0c0.232-0.016 0.414-0.208 0.414-0.443 0-0.010-0-0.021-0.001-0.031l0 0.001z"></path>
</svg>
